<svg width="64" height="78" viewBox="0 0 64 78" fill="none" xmlns="http://www.w3.org/2000/svg" aria-hidden="true">
          <defs>
            <linearGradient id="shell" x1="12" y1="17" x2="53" y2="68" gradientUnits="userSpaceOnUse"><stop stop-color="#B89CCF"/><stop offset=".53" stop-color="#765D94"/><stop offset="1" stop-color="#503E6E"/></linearGradient>
            <linearGradient id="lid" x1="16" y1="12" x2="51" y2="24" gradientUnits="userSpaceOnUse"><stop stop-color="#C9B5DA"/><stop offset="1" stop-color="#6B537F"/></linearGradient>
          </defs>
          <ellipse cx="32" cy="74" rx="18" ry="2.5" fill="#261E32" opacity=".18"/>
          <path d="M18 63h10l-2 7h-9l1-7Zm18 0h10l1 7h-9l-2-7Z" fill="#4A3A62"/>
          <path d="M14 43c-4-1-7 1-7 5s2 6 6 6m37-11c4-1 7 1 7 5s-2 6-6 6" stroke="#59466E" stroke-width="4" stroke-linecap="round"/>
          <rect x="12" y="20" width="40" height="46" rx="10" fill="url(#shell)" stroke="#433451" stroke-width="1.5"/>
          <path d="M16 24v34c0 2 1 4 3 5" stroke="#E2D1EF" stroke-opacity=".63" stroke-width="1.2" stroke-linecap="round"/>
          <path d="M48 24v35c0 2-1 3-2 4" stroke="#35283F" stroke-opacity=".42" stroke-width="1.2" stroke-linecap="round"/>
          <rect x="18" y="30" width="28" height="20" rx="6" fill="#292338" stroke="#B49CC7" stroke-width="1"/>
          <g class="robot-eyes" fill="#D7F4EF"><circle cx="26" cy="39" r="2.7"/><circle cx="38" cy="39" r="2.7"/></g>
          <path d="M29 45c1.6 1.1 4.4 1.1 6 0" stroke="#96CEC9" stroke-linecap="round" stroke-width="1.1"/>
          <rect x="23" y="55" width="18" height="5" rx="2.5" fill="#30263C" stroke="#B398C7" stroke-width=".8"/>
          <g class="robot-lid"><path d="M14 18c0-4 3-7 7-7h22c4 0 7 3 7 7v5H14v-5Z" fill="url(#lid)" stroke="#483556" stroke-width="1.4"/><path d="M17 16h30" stroke="#E9D9F1" stroke-opacity=".7" stroke-width="1" stroke-linecap="round"/></g>
          
        </svg>